<svg width="216" height="131" viewBox="0 0 216 131" fill="none" xmlns="http://www.w3.org/2000/svg">
<g filter="url(#filter0_d_8_6082)">
<rect x="148" y="12" width="56" height="107" rx="2" fill="black" fill-opacity="0.01" shape-rendering="crispEdges"/>
</g>
<mask id="path-2-inside-1_8_6082" fill="white">
<path fill-rule="evenodd" clip-rule="evenodd" d="M128.073 21C128.073 19.3431 126.73 18 125.073 18H11C9.34315 18 8 19.3431 8 21V111C8 112.657 9.34314 114 11 114H125.073C126.73 114 128.073 112.657 128.073 111V73.0501C128.073 71.9139 128.715 70.8751 129.731 70.3669L133.098 68.6832C135.309 67.5776 135.309 64.4224 133.098 63.3168L129.731 61.6331C128.715 61.1249 128.073 60.0861 128.073 58.9499V21Z"/>
</mask>
<path fill-rule="evenodd" clip-rule="evenodd" d="M128.073 21C128.073 19.3431 126.73 18 125.073 18H11C9.34315 18 8 19.3431 8 21V111C8 112.657 9.34314 114 11 114H125.073C126.73 114 128.073 112.657 128.073 111V73.0501C128.073 71.9139 128.715 70.8751 129.731 70.3669L133.098 68.6832C135.309 67.5776 135.309 64.4224 133.098 63.3168L129.731 61.6331C128.715 61.1249 128.073 60.0861 128.073 58.9499V21Z" fill="#D3D6DB"/>
<path d="M129.731 61.6331L129.284 62.5275L129.731 61.6331ZM133.098 68.6832L132.651 67.7888L133.098 68.6832ZM129.731 70.3669L129.284 69.4725L129.731 70.3669ZM11 19H125.073V17H11V19ZM9 111V21H7V111H9ZM125.073 113H11V115H125.073V113ZM127.073 73.0501V111H129.073V73.0501H127.073ZM130.178 71.2613L133.545 69.5776L132.651 67.7888L129.284 69.4725L130.178 71.2613ZM133.545 62.4224L130.178 60.7387L129.284 62.5275L132.651 64.2112L133.545 62.4224ZM127.073 21V58.9499H129.073V21H127.073ZM130.178 60.7387C129.501 60.3999 129.073 59.7074 129.073 58.9499H127.073C127.073 60.4649 127.929 61.8499 129.284 62.5275L130.178 60.7387ZM133.545 69.5776C136.493 68.1034 136.493 63.8966 133.545 62.4224L132.651 64.2112C134.125 64.9483 134.125 67.0517 132.651 67.7888L133.545 69.5776ZM129.073 73.0501C129.073 72.2926 129.501 71.6001 130.178 71.2613L129.284 69.4725C127.929 70.1501 127.073 71.5351 127.073 73.0501H129.073ZM125.073 115C127.282 115 129.073 113.209 129.073 111H127.073C127.073 112.105 126.177 113 125.073 113V115ZM7 111C7 113.209 8.79086 115 11 115V113C9.89543 113 9 112.105 9 111H7ZM125.073 19C126.177 19 127.073 19.8954 127.073 21H129.073C129.073 18.7909 127.282 17 125.073 17V19ZM11 17C8.79086 17 7 18.7909 7 21H9C9 19.8954 9.89543 19 11 19V17Z" fill="black" mask="url(#path-2-inside-1_8_6082)"/>
<path d="M24.25 97H37.75" stroke="black" stroke-linecap="round"/>
<path d="M33.25 101.5L37.75 97L33.25 92.5" stroke="black" stroke-linecap="round"/>
<path d="M28.588 44.27C27.298 44.27 26.203 43.985 25.303 43.415C24.403 42.845 23.716 42.053 23.242 41.039C22.774 40.025 22.54 38.852 22.54 37.52C22.54 36.188 22.774 35.015 23.242 34.001C23.716 32.987 24.403 32.195 25.303 31.625C26.203 31.055 27.298 30.77 28.588 30.77C30.088 30.77 31.321 31.151 32.287 31.913C33.259 32.675 33.928 33.701 34.294 34.991L32.665 35.423C32.401 34.457 31.93 33.695 31.252 33.137C30.574 32.579 29.686 32.3 28.588 32.3C27.622 32.3 26.818 32.519 26.176 32.957C25.534 33.395 25.051 34.007 24.727 34.793C24.403 35.573 24.238 36.482 24.232 37.52C24.226 38.552 24.385 39.461 24.709 40.247C25.033 41.027 25.519 41.639 26.167 42.083C26.815 42.521 27.622 42.74 28.588 42.74C29.686 42.74 30.574 42.461 31.252 41.903C31.93 41.339 32.401 40.577 32.665 39.617L34.294 40.049C33.928 41.333 33.259 42.359 32.287 43.127C31.321 43.889 30.088 44.27 28.588 44.27ZM42.3158 44.27C41.0258 44.27 39.9308 43.985 39.0308 43.415C38.1308 42.845 37.4438 42.053 36.9698 41.039C36.5018 40.025 36.2678 38.852 36.2678 37.52C36.2678 36.188 36.5018 35.015 36.9698 34.001C37.4438 32.987 38.1308 32.195 39.0308 31.625C39.9308 31.055 41.0258 30.77 42.3158 30.77C43.6118 30.77 44.7098 31.055 45.6098 31.625C46.5098 32.195 47.1938 32.987 47.6618 34.001C48.1298 35.015 48.3638 36.188 48.3638 37.52C48.3638 38.852 48.1298 40.025 47.6618 41.039C47.1938 42.053 46.5098 42.845 45.6098 43.415C44.7098 43.985 43.6118 44.27 42.3158 44.27ZM42.3158 42.74C43.2818 42.746 44.0858 42.53 44.7278 42.092C45.3758 41.648 45.8588 41.033 46.1768 40.247C46.5008 39.461 46.6628 38.552 46.6628 37.52C46.6628 36.482 46.5008 35.573 46.1768 34.793C45.8588 34.013 45.3758 33.404 44.7278 32.966C44.0858 32.528 43.2818 32.306 42.3158 32.3C41.3498 32.294 40.5458 32.51 39.9038 32.948C39.2678 33.386 38.7878 33.998 38.4638 34.784C38.1398 35.57 37.9748 36.482 37.9688 37.52C37.9628 38.552 38.1218 39.458 38.4458 40.238C38.7698 41.018 39.2528 41.63 39.8948 42.074C40.5428 42.512 41.3498 42.734 42.3158 42.74ZM50.8914 44V31.04H52.5114L59.2704 41.165V31.04H60.8904V44H59.2704L52.5114 33.866V44H50.8914ZM64.127 44V31.04H65.747L72.506 41.165V31.04H74.126V44H72.506L65.747 33.866V44H64.127ZM77.3627 44V31.04H85.5527V32.561H78.9647V36.62H84.4727V38.141H78.9647V42.479H85.5527V44H77.3627ZM93.3071 44.27C92.0171 44.27 90.9221 43.985 90.0221 43.415C89.1221 42.845 88.4351 42.053 87.9611 41.039C87.4931 40.025 87.2591 38.852 87.2591 37.52C87.2591 36.188 87.4931 35.015 87.9611 34.001C88.4351 32.987 89.1221 32.195 90.0221 31.625C90.9221 31.055 92.0171 30.77 93.3071 30.77C94.8071 30.77 96.0401 31.151 97.0061 31.913C97.9781 32.675 98.6471 33.701 99.0131 34.991L97.3841 35.423C97.1201 34.457 96.6491 33.695 95.9711 33.137C95.2931 32.579 94.4051 32.3 93.3071 32.3C92.3411 32.3 91.5371 32.519 90.8951 32.957C90.2531 33.395 89.7701 34.007 89.4461 34.793C89.1221 35.573 88.9571 36.482 88.9511 37.52C88.9451 38.552 89.1041 39.461 89.4281 40.247C89.7521 41.027 90.2381 41.639 90.8861 42.083C91.5341 42.521 92.3411 42.74 93.3071 42.74C94.4051 42.74 95.2931 42.461 95.9711 41.903C96.6491 41.339 97.1201 40.577 97.3841 39.617L99.0131 40.049C98.6471 41.333 97.9781 42.359 97.0061 43.127C96.0401 43.889 94.8071 44.27 93.3071 44.27ZM105.046 44V32.561H100.627V31.04H111.067V32.561H106.648V44H105.046ZM26.023 66L22.27 53.04H23.944L26.824 63.291L29.695 53.049L31.378 53.04L34.258 63.291L37.129 53.04H38.812L35.059 66H33.457L30.541 55.839L27.625 66H26.023ZM38.9003 66L43.2383 53.04H45.4703L49.8083 66H48.1433L44.0843 53.976H44.5883L40.5653 66H38.9003ZM40.9883 62.967V61.464H47.7203V62.967H40.9883ZM52.3195 66V53.04H53.9215V64.479H59.9335V66H52.3195ZM62.3559 66V53.04H63.9579V64.479H69.9699V66H62.3559ZM72.2123 66V53.04H80.4023V54.561H73.8143V58.62H79.3223V60.141H73.8143V64.479H80.4023V66H72.2123ZM86.6248 66V54.561H82.2058V53.04H92.6458V54.561H88.2268V66H86.6248Z" fill="black"/>
<defs>
<filter id="filter0_d_8_6082" x="136" y="0" width="80" height="131" filterUnits="userSpaceOnUse" color-interpolation-filters="sRGB">
<feFlood flood-opacity="0" result="BackgroundImageFix"/>
<feColorMatrix in="SourceAlpha" type="matrix" values="0 0 0 0 0 0 0 0 0 0 0 0 0 0 0 0 0 0 127 0" result="hardAlpha"/>
<feOffset/>
<feGaussianBlur stdDeviation="6"/>
<feComposite in2="hardAlpha" operator="out"/>
<feColorMatrix type="matrix" values="0 0 0 0 0.839216 0 0 0 0 0.0392157 0 0 0 0 0.0745098 0 0 0 1 0"/>
<feBlend mode="normal" in2="BackgroundImageFix" result="effect1_dropShadow_8_6082"/>
<feBlend mode="normal" in="SourceGraphic" in2="effect1_dropShadow_8_6082" result="shape"/>
</filter>
</defs>
</svg>
