<svg width="199" height="520" viewBox="0 0 199 520" fill="none" xmlns="http://www.w3.org/2000/svg">
<g filter="url(#filter0_d_8_6095)">
<path d="M182.566 85.3602L32.1585 21.365C29.6466 20.2963 28.3906 19.7619 27.4941 20.3539C26.5976 20.946 26.5959 22.3109 26.5925 25.0407L26.0088 493.914C26.0049 497.055 26.003 498.625 27.019 499.2C28.0351 499.775 29.3805 498.966 32.0712 497.347L183.062 406.488C184.009 405.919 184.482 405.634 184.741 405.176C185 404.718 185 404.165 185 403.061V89.0409C185 87.7582 185 87.1168 184.668 86.6151C184.336 86.1134 183.746 85.8624 182.566 85.3602Z" fill="black" fill-opacity="0.01" shape-rendering="crispEdges"/>
</g>
<defs>
<filter id="filter0_d_8_6095" x="0.00830078" y="0.108521" width="198.992" height="519.276" filterUnits="userSpaceOnUse" color-interpolation-filters="sRGB">
<feFlood flood-opacity="0" result="BackgroundImageFix"/>
<feColorMatrix in="SourceAlpha" type="matrix" values="0 0 0 0 0 0 0 0 0 0 0 0 0 0 0 0 0 0 127 0" result="hardAlpha"/>
<feOffset dx="-6"/>
<feGaussianBlur stdDeviation="10"/>
<feComposite in2="hardAlpha" operator="out"/>
<feColorMatrix type="matrix" values="0 0 0 0 0.839216 0 0 0 0 0.0392157 0 0 0 0 0.0745098 0 0 0 1 0"/>
<feBlend mode="normal" in2="BackgroundImageFix" result="effect1_dropShadow_8_6095"/>
<feBlend mode="normal" in="SourceGraphic" in2="effect1_dropShadow_8_6095" result="shape"/>
</filter>
</defs>
</svg>
